<?xml version="1.0" encoding="UTF-8"?>
<!DOCTYPE svg PUBLIC "-//W3C//DTD SVG 1.1//EN" "http://www.w3.org/Graphics/SVG/1.1/DTD/svg11.dtd">
<!-- Creator: CorelDRAW 2020 (64 Bit) -->
<svg xmlns="http://www.w3.org/2000/svg" xml:space="preserve" width="49.3547mm" height="31.5425mm" version="1.1" style="shape-rendering:geometricPrecision; text-rendering:geometricPrecision; image-rendering:optimizeQuality; fill-rule:evenodd; clip-rule:evenodd"
viewBox="0 0 4352.36 2781.59"
 xmlns:xlink="http://www.w3.org/1999/xlink"
 xmlns:xodm="http://www.corel.com/coreldraw/odm/2003">
 <defs>
  <style type="text/css">
   <![CDATA[
    .fil0 {fill:#0A94D6;fill-rule:nonzero}
   ]]>
  </style>
 </defs>
 <g id="Camada_x0020_1">
  <metadata id="CorelCorpID_0Corel-Layer"/>
  <path class="fil0" d="M2503.19 2365.86c-69.97,0 -126.87,-56.9 -126.87,-126.86 0,-69.94 56.91,-126.84 126.87,-126.84 69.93,0 126.86,56.9 126.86,126.84 0,69.97 -56.93,126.86 -126.86,126.86zm-160.96 -1719.94c6.19,-0.86 12.38,-1.33 18.51,-1.33 27.13,0 53.48,8.7 75.63,25.23 27.16,20.25 44.8,49.87 49.65,83.41 10.05,69.22 -38.08,133.74 -107.3,143.79 -69.15,10.05 -133.71,-38.08 -143.79,-107.3 -10.05,-69.23 38.08,-133.72 107.3,-143.8zm-719.57 934.2c0,69.93 -56.9,126.84 -126.86,126.84 -69.97,0 -126.86,-56.91 -126.86,-126.84 0,-69.97 56.9,-126.86 126.86,-126.86 69.97,0 126.86,56.9 126.86,126.86zm2591.42 -236.78c-179.97,-283.41 -498.69,-449.79 -831.78,-458.93 -791.78,-21.81 -1258.74,779.93 -1769.99,1251.31 -183.83,169.51 -413.98,351.79 -674.06,371.54 -232.3,17.64 -486.8,-100.21 -607.67,-304.48 -192.25,-324.94 -9.52,-751.11 367.38,-811.09 195.81,-31.17 367.31,39.54 522.71,143.45 -2.4,14.68 -3.99,29.65 -3.99,44.98 0,153.87 125.21,279.09 279.12,279.09 153.87,0 279.09,-125.22 279.09,-279.09 0,-153.9 -125.21,-279.09 -279.09,-279.09 -40.26,0 -78.42,8.71 -112.99,24.11 -368.09,-226.38 -374.03,-802.57 38.05,-1012.65 300.24,-153.06 618.93,-11.79 761.45,244.71 -72.06,60.11 -112.46,154.92 -98,254.41 20.16,138.75 139.71,238.96 276.01,238.96 13.32,0 26.76,-0.96 40.32,-2.92 152.28,-22.13 258.15,-164.04 236.05,-316.29 -15.89,-109.36 -93.64,-194.44 -192.5,-225.74 -188.41,-425.12 -727.11,-653.65 -1175.8,-398.95 -270.93,153.74 -440.79,462.97 -418.52,774.88 6.47,90.8 27.19,176.64 59.54,256.28 -301.49,-31.92 -609.07,77.49 -781.97,338.91 -198.11,299.62 -158.01,703.27 70.25,972.96 164.69,194.63 434.67,311.91 689.2,312.91 657.41,2.55 1083.59,-663.73 1494.45,-1075.28 246.02,-246.43 558.67,-530.8 925.34,-548.35 320.43,-15.34 647.27,156.67 756.68,470.6 112.59,323.04 -44.37,703.7 -352.17,854.3 -330.98,161.93 -649.66,0.9 -931.7,-187.46 1.65,-12.29 2.8,-24.7 2.8,-37.43 0,-153.87 -125.21,-279.05 -279.08,-279.05 -153.87,0 -279.09,125.18 -279.09,279.05 0,153.9 125.21,279.12 279.09,279.12 48.12,0 93.45,-12.26 132.99,-33.82 248.59,166.93 512.82,311.85 823.94,296.11 339.65,-17.18 644.38,-215.5 792.52,-523.36 140.25,-291.35 137.1,-637.07 -38.57,-913.7z"/>
 </g>
</svg>
