<?xml version="1.0" encoding="UTF-8" standalone="no"?>
<svg
   xmlns:dc="http://purl.org/dc/elements/1.1/"
   xmlns:cc="http://creativecommons.org/ns#"
   xmlns:rdf="http://www.w3.org/1999/02/22-rdf-syntax-ns#"
   xmlns:svg="http://www.w3.org/2000/svg"
   xmlns="http://www.w3.org/2000/svg"
   xmlns:sodipodi="http://sodipodi.sourceforge.net/DTD/sodipodi-0.dtd"
   xmlns:inkscape="http://www.inkscape.org/namespaces/inkscape"
   inkscape:version="1.0 (4035a4fb49, 2020-05-01)"
   sodipodi:docname="medcloud.svg"
   viewBox="0 0 559.37042 93.566993"
   height="93.566994"
   width="559.37042"
   xml:space="preserve"
   id="svg2"
   version="1.1"><metadata
     id="metadata8"><rdf:RDF><cc:Work
         rdf:about=""><dc:format>image/svg+xml</dc:format><dc:type
           rdf:resource="http://purl.org/dc/dcmitype/StillImage" /><dc:title></dc:title></cc:Work></rdf:RDF></metadata><defs
     id="defs6"><clipPath
       id="clipPath26"
       clipPathUnits="userSpaceOnUse"><path
         id="path24"
         d="M 0,566.929 H 566.929 V 0 H 0 Z" /></clipPath><clipPath
       id="clipPath42"
       clipPathUnits="userSpaceOnUse"><path
         id="path40"
         d="M 0,566.929 H 566.929 V 0 H 0 Z" /></clipPath></defs><sodipodi:namedview
     inkscape:current-layer="g10"
     inkscape:window-maximized="1"
     inkscape:window-y="-8"
     inkscape:window-x="-8"
     inkscape:cy="-75.296696"
     inkscape:cx="270.92121"
     inkscape:zoom="0.7249585"
     showgrid="false"
     id="namedview4"
     inkscape:window-height="715"
     inkscape:window-width="1360"
     inkscape:pageshadow="2"
     inkscape:pageopacity="0"
     guidetolerance="10"
     gridtolerance="10"
     objecttolerance="10"
     borderopacity="1"
     bordercolor="#666666"
     pagecolor="#ffffff" /><g
     transform="matrix(1.3333333,0,0,-1.3333333,-98.26742,424.73645)"
     inkscape:label="brandbook medcloud"
     inkscape:groupmode="layer"
     id="g10"><g
       id="g36"><g
         clip-path="url(#clipPath42)"
         id="g38"><g
           transform="translate(136.8537,258.8647)"
           id="g44"><path
             id="path46"
             style="fill:#2b93dd;fill-opacity:1;fill-rule:nonzero;stroke:none"
             d="M 0,0 C -1.765,0 -3.2,1.436 -3.2,3.2 -3.2,4.965 -1.765,6.4 0,6.4 1.765,6.4 3.2,4.965 3.2,3.2 3.2,1.436 1.765,0 0,0 m -4.061,43.392 c 0.156,0.023 0.312,0.034 0.467,0.034 0.685,0 1.349,-0.219 1.908,-0.636 0.685,-0.512 1.13,-1.259 1.253,-2.105 0.253,-1.747 -0.961,-3.374 -2.707,-3.628 -1.745,-0.253 -3.374,0.961 -3.628,2.707 -0.253,1.747 0.961,3.374 2.707,3.628 M -22.215,19.824 c 0,-1.765 -1.436,-3.201 -3.201,-3.201 -1.765,0 -3.2,1.436 -3.2,3.201 0,1.764 1.435,3.2 3.2,3.2 1.765,0 3.201,-1.436 3.201,-3.2 m 65.379,5.973 C 38.623,32.947 30.582,37.144 22.179,37.375 2.203,37.925 -9.578,17.699 -22.476,5.806 -27.115,1.53 -32.921,-3.069 -39.482,-3.567 c -5.861,-0.445 -12.281,2.528 -15.331,7.681 -4.85,8.198 -0.239,18.949 9.269,20.463 4.94,0.787 9.267,-0.997 13.187,-3.619 -0.06,-0.37 -0.1,-0.748 -0.1,-1.134 0,-3.883 3.159,-7.041 7.041,-7.041 3.883,0 7.041,3.158 7.041,7.041 0,3.882 -3.158,7.04 -7.041,7.04 -1.015,0 -1.978,-0.22 -2.851,-0.608 -9.285,5.712 -9.435,20.248 0.961,25.549 7.575,3.861 15.615,0.297 19.21,-6.174 -1.818,-1.517 -2.837,-3.909 -2.472,-6.419 0.508,-3.5 3.525,-6.029 6.963,-6.029 0.336,0 0.675,0.025 1.017,0.074 3.842,0.558 6.513,4.138 5.955,7.98 -0.401,2.759 -2.362,4.905 -4.856,5.695 -4.753,10.725 -18.344,16.49 -29.664,10.065 -6.835,-3.879 -11.121,-11.681 -10.559,-19.549 0.164,-2.291 0.687,-4.457 1.503,-6.466 -7.607,0.805 -15.367,-1.955 -19.729,-8.551 -4.999,-7.559 -3.986,-17.743 1.772,-24.547 4.155,-4.909 10.967,-7.869 17.389,-7.894 16.585,-0.064 27.337,16.745 37.702,27.128 C 3.133,23.336 11.021,30.51 20.271,30.953 28.354,31.34 36.601,27 39.361,19.08 42.201,10.93 38.242,1.327 30.476,-2.473 22.126,-6.559 14.086,-2.496 6.97,2.256 7.012,2.566 7.041,2.879 7.041,3.2 c 0,3.883 -3.159,7.041 -7.041,7.041 -3.882,0 -7.041,-3.158 -7.041,-7.041 0,-3.882 3.159,-7.041 7.041,-7.041 1.214,0 2.357,0.309 3.355,0.853 6.272,-4.212 12.938,-7.867 20.788,-7.47 8.568,0.433 16.256,5.436 19.994,13.203 3.538,7.351 3.459,16.073 -0.973,23.052" /></g><g
           transform="translate(244.215,253.0209)"
           id="g48"><path
             id="path50"
             style="fill:#0a2435;fill-opacity:1;fill-rule:nonzero;stroke:none"
             d="m 0,0 c -0.589,0 -1.066,0.477 -1.066,1.066 v 18.48 c 0,1.961 -0.117,3.49 -0.348,4.586 -0.233,1.096 -0.586,1.839 -1.06,2.23 -0.474,0.39 -1.26,0.585 -2.356,0.585 -1.244,0 -2.562,-0.464 -3.954,-1.391 -1.282,-0.856 -2.484,-1.89 -3.606,-3.103 -0.183,-0.198 -0.284,-0.463 -0.284,-0.734 V 1.066 C -12.674,0.477 -13.151,0 -13.74,0 h -6.028 c -0.588,0 -1.065,0.477 -1.065,1.066 v 18.48 c 0,2.151 -0.095,3.705 -0.285,4.665 -0.19,0.959 -0.528,1.655 -1.012,2.088 -0.486,0.432 -1.308,0.648 -2.467,0.648 -1.013,0 -2.183,-0.385 -3.511,-1.155 -1.243,-0.72 -2.587,-1.832 -4.033,-3.336 -0.191,-0.199 -0.3,-0.47 -0.3,-0.746 V 1.066 C -32.441,0.477 -32.918,0 -33.507,0 h -6.028 c -0.589,0 -1.067,0.477 -1.067,1.066 v 31.046 c 0,0.589 0.478,1.066 1.067,1.066 h 6.028 c 0.589,0 1.066,-0.477 1.066,-1.066 v -0.715 c 0,-0.918 1.079,-1.397 1.771,-0.794 0.973,0.848 1.975,1.558 3.004,2.132 1.666,0.928 3.511,1.391 5.536,1.391 2.762,0 4.801,-0.474 6.119,-1.423 0.948,-0.682 1.68,-1.599 2.198,-2.75 0.295,-0.658 1.155,-0.812 1.686,-0.325 1.459,1.338 2.842,2.373 4.15,3.107 1.655,0.928 3.589,1.391 5.804,1.391 3.226,0 5.576,-0.917 7.053,-2.751 1.475,-1.834 2.213,-4.914 2.213,-9.235 V 1.066 C 7.093,0.477 6.616,0 6.027,0 Z" /></g><g
           transform="translate(279.8038,273.1044)"
           id="g52"><path
             id="path54"
             style="fill:#0a2435;fill-opacity:1;fill-rule:nonzero;stroke:none"
             d="m 0,0 c 0.619,0 1.114,0.529 1.067,1.146 -0.32,4.275 -2.51,6.413 -6.569,6.413 -1.455,0 -2.646,-0.248 -3.574,-0.743 -0.927,-0.496 -1.671,-1.233 -2.23,-2.214 -0.438,-0.769 -0.801,-1.879 -1.09,-3.329 C -12.527,0.616 -12.018,0 -11.349,0 Z m -11.682,-5.629 c -0.633,0 -1.133,-0.553 -1.063,-1.182 0.263,-2.343 0.948,-4.068 2.056,-5.175 1.286,-1.287 3.311,-1.93 6.073,-1.93 1.602,0 3.01,0.2 4.222,0.601 0.955,0.315 1.815,0.86 2.58,1.633 0.368,0.371 0.949,0.426 1.374,0.123 l 4.4,-3.14 c 0.508,-0.363 0.597,-1.083 0.197,-1.563 -1.216,-1.463 -2.706,-2.589 -4.471,-3.379 -2.119,-0.949 -5.013,-1.423 -8.682,-1.423 -5.461,0 -9.535,1.434 -12.224,4.301 -2.688,2.867 -4.032,7.2 -4.032,12.999 0,11.871 5.313,17.807 15.94,17.807 4.723,0 8.323,-1.334 10.801,-4.001 C 7.966,7.375 9.205,3.49 9.205,-1.612 v -2.951 c 0,-0.589 -0.477,-1.066 -1.066,-1.066 z" /></g><g
           transform="translate(361.3912,258.3964)"
           id="g56"><path
             id="path58"
             style="fill:#0a2435;fill-opacity:1;fill-rule:nonzero;stroke:none"
             d="m 0,0 c 0.509,-0.358 0.605,-1.075 0.212,-1.558 -1.162,-1.425 -2.599,-2.54 -4.311,-3.343 -2.066,-0.97 -4.68,-1.455 -7.842,-1.455 -5.357,0 -9.405,1.46 -12.146,4.38 -2.741,2.921 -4.111,7.248 -4.111,12.984 0,5.587 1.328,9.941 3.985,13.062 2.656,3.121 6.641,4.681 11.955,4.681 2.847,0 5.382,-0.464 7.606,-1.392 1.861,-0.776 3.35,-1.906 4.465,-3.391 0.361,-0.479 0.253,-1.166 -0.236,-1.514 l -4.426,-3.159 c -0.436,-0.311 -1.031,-0.244 -1.397,0.147 -0.596,0.636 -1.261,1.129 -1.995,1.481 -0.991,0.475 -2.267,0.712 -3.827,0.712 -2.784,0 -4.765,-0.854 -5.946,-2.562 -1.181,-1.708 -1.772,-4.355 -1.772,-7.939 0,-3.585 0.606,-6.204 1.819,-7.859 1.212,-1.656 3.284,-2.483 6.216,-2.483 1.265,0 2.423,0.179 3.478,0.538 0.835,0.284 1.637,0.838 2.406,1.665 0.362,0.389 0.955,0.456 1.39,0.151 z" /></g><g
           transform="translate(407.4235,269.5307)"
           id="g60"><path
             id="path62"
             style="fill:#0a2435;fill-opacity:1;fill-rule:nonzero;stroke:none"
             d="M 0,0 C 0,3.647 -0.569,6.31 -1.708,7.986 -2.847,9.663 -4.755,10.5 -7.432,10.5 -10.089,10.5 -12.008,9.641 -13.188,7.923 -14.37,6.204 -14.96,3.563 -14.96,0 c 0,-3.542 0.585,-6.152 1.755,-7.828 1.171,-1.676 3.095,-2.514 5.773,-2.514 2.635,0 4.533,0.827 5.692,2.483 C -0.58,-6.204 0,-3.585 0,0 m 8.445,0 c 0,-5.525 -1.276,-9.821 -3.827,-12.888 -2.551,-3.069 -6.568,-4.602 -12.05,-4.602 -10.628,0 -15.941,5.829 -15.941,17.49 0,5.609 1.276,9.947 3.828,13.015 2.55,3.068 6.588,4.602 12.113,4.602 5.482,0 9.499,-1.534 12.05,-4.602 C 7.169,9.947 8.445,5.609 8.445,0" /></g><g
           transform="translate(444.4908,254.0869)"
           id="g64"><path
             id="path66"
             style="fill:#0a2435;fill-opacity:1;fill-rule:nonzero;stroke:none"
             d="m 0,0 v 0.779 c 0,0.895 -1.029,1.384 -1.73,0.825 -1.051,-0.837 -2.23,-1.563 -3.536,-2.18 -2.076,-0.98 -4.075,-1.47 -5.993,-1.47 -3.753,0 -6.378,1.038 -7.875,3.115 -1.498,2.076 -2.245,5.034 -2.245,8.871 v 21.106 c 0,0.589 0.477,1.066 1.066,1.066 h 6.027 c 0.589,0 1.066,-0.477 1.066,-1.066 V 13.831 c 0,-2.341 0.137,-4.133 0.411,-5.376 0.274,-1.245 0.723,-2.104 1.345,-2.579 0.621,-0.474 1.533,-0.711 2.735,-0.711 2.341,0 5.135,1.484 8.38,4.452 C -0.127,9.819 0,10.111 0,10.41 v 20.636 c 0,0.589 0.478,1.066 1.066,1.066 h 6.029 c 0.588,0 1.066,-0.477 1.066,-1.066 V 0 c 0,-0.589 -0.478,-1.066 -1.066,-1.066 H 1.066 C 0.478,-1.066 0,-0.589 0,0" /></g><g
           transform="translate(369.0011,298.83)"
           id="g68"><path
             id="path70"
             style="fill:#0a2435;fill-opacity:1;fill-rule:nonzero;stroke:none"
             d="M 0,0 H 6.478 C 6.843,0 7.14,-0.296 7.14,-0.662 v -36.154 c 0.058,-3.078 1.476,-5.287 4.151,-6.825 0.37,-0.212 0.432,-0.721 0.135,-1.026 l -4.065,-4.171 c -0.175,-0.18 -0.44,-0.252 -0.678,-0.172 -4.541,1.511 -7.345,6.403 -7.345,11.355 V -0.662 C -0.662,-0.296 -0.366,0 0,0" /></g><g
           transform="translate(317.505,262.9843)"
           id="g72"><path
             id="path74"
             style="fill:#0a2435;fill-opacity:1;fill-rule:nonzero;stroke:none"
             d="m 0,0 c 0,-0.312 -0.129,-0.615 -0.369,-0.815 -0.914,-0.768 -1.988,-1.424 -3.22,-1.971 -1.403,-0.622 -2.778,-0.933 -4.127,-0.933 -2.278,0 -3.96,0.907 -5.045,2.72 -1.087,1.814 -1.629,4.312 -1.629,7.496 0,3.227 0.664,5.783 1.992,7.67 1.329,1.887 3.089,2.831 5.282,2.831 1.328,0 2.631,-0.3 3.907,-0.902 1.097,-0.516 2.042,-1.1 2.835,-1.75 C -0.131,14.147 0,13.843 0,13.528 Z m 11.896,-6.427 c -2.073,1.264 -3.326,2.97 -3.735,5.201 v 37.305 c 0,0.588 -0.478,1.066 -1.066,1.066 H 1.066 C 0.478,37.145 0,36.667 0,36.079 V 22.896 c 0,-0.844 -0.923,-1.341 -1.639,-0.894 -0.728,0.456 -1.542,0.859 -2.44,1.211 -1.645,0.642 -3.248,0.964 -4.808,0.964 -4.407,0 -7.828,-1.56 -10.263,-4.68 -2.435,-3.122 -3.653,-7.497 -3.653,-13.126 0,-5.503 1.107,-9.763 3.321,-12.778 2.213,-3.015 5.408,-4.523 9.583,-4.523 2.151,0 4.069,0.379 5.756,1.139 1.085,0.488 2.134,1.084 3.148,1.79 0.701,0.487 2.13,1.56 3.307,0.219 l 0.004,0.006 c 1.235,-1.887 2.966,-3.381 5.091,-4.126 0.322,-0.113 0.681,-0.015 0.919,0.23 l 3.754,3.851 c 0.404,0.415 0.31,1.092 -0.184,1.394" /></g><g
           transform="translate(480.8956,263.0483)"
           id="g76"><path
             id="path78"
             style="fill:#0a2435;fill-opacity:1;fill-rule:nonzero;stroke:none"
             d="m 0,0 c 0,-0.312 -0.129,-0.615 -0.369,-0.815 -0.914,-0.768 -1.988,-1.424 -3.22,-1.971 -1.403,-0.622 -2.778,-0.933 -4.127,-0.933 -2.278,0 -3.96,0.907 -5.045,2.72 -1.087,1.814 -1.629,4.312 -1.629,7.496 0,3.227 0.664,5.783 1.992,7.67 1.329,1.887 3.089,2.831 5.282,2.831 1.328,0 2.631,-0.3 3.907,-0.902 1.097,-0.516 2.042,-1.1 2.835,-1.75 C -0.131,14.147 0,13.843 0,13.528 Z m 11.896,-6.427 c -2.073,1.264 -3.326,2.97 -3.735,5.201 v 37.305 c 0,0.588 -0.478,1.066 -1.066,1.066 H 1.066 C 0.478,37.145 0,36.667 0,36.079 V 22.896 c 0,-0.845 -0.923,-1.341 -1.639,-0.894 -0.728,0.456 -1.542,0.859 -2.44,1.211 -1.645,0.642 -3.248,0.964 -4.808,0.964 -4.407,0 -7.828,-1.56 -10.263,-4.68 -2.435,-3.122 -3.653,-7.497 -3.653,-13.126 0,-5.503 1.107,-9.763 3.321,-12.778 2.213,-3.015 5.408,-4.523 9.583,-4.523 2.151,0 4.069,0.379 5.756,1.139 1.084,0.487 2.134,1.084 3.148,1.79 0.701,0.487 2.13,1.56 3.306,0.219 l 0.005,0.006 c 1.235,-1.887 2.966,-3.382 5.091,-4.127 0.322,-0.113 0.681,-0.014 0.919,0.231 l 3.754,3.851 c 0.404,0.415 0.31,1.092 -0.184,1.394" /></g></g></g></g></svg>
